<?xml version="1.0" standalone="no"?>
<!DOCTYPE svg PUBLIC "-//W3C//DTD SVG 20010904//EN"
 "http://www.w3.org/TR/2001/REC-SVG-20010904/DTD/svg10.dtd">
<svg version="1.0" xmlns="http://www.w3.org/2000/svg"
 width="69.000000pt" height="138.000000pt" viewBox="0 0 69.000000 138.000000"
 preserveAspectRatio="xMidYMid meet">

<g transform="translate(0.000000,138.000000) scale(0.100000,-0.100000)"
fill="#000000" stroke="none">
<path d="M95 1362 c-40 -26 -61 -50 -80 -95 -13 -31 -15 -115 -15 -599 l0
-563 25 -53 c23 -50 27 -53 57 -50 32 3 37 10 148 220 63 120 117 218 120 217
3 0 57 -97 120 -217 109 -205 117 -217 145 -220 27 -3 34 2 53 36 l22 40 0
591 c0 647 3 617 -60 676 l-31 30 -237 3 c-218 2 -239 1 -267 -16z m497 -102
c17 -24 18 -51 16 -570 l-3 -545 -111 210 c-61 115 -119 214 -128 220 -11 7
-21 7 -32 0 -9 -6 -66 -102 -125 -214 -60 -112 -111 -206 -114 -209 -3 -3 -5
240 -5 540 0 538 0 546 21 572 l21 26 220 -2 221 -3 19 -25z"/>
</g>
</svg>
