<?xml version="1.0" standalone="no"?>
<!DOCTYPE svg PUBLIC "-//W3C//DTD SVG 20010904//EN"
 "http://www.w3.org/TR/2001/REC-SVG-20010904/DTD/svg10.dtd">
<svg version="1.0" xmlns="http://www.w3.org/2000/svg"
 width="142.000000pt" height="91.000000pt" viewBox="0 0 142.000000 91.000000"
 preserveAspectRatio="xMidYMid meet">

<g transform="translate(0.000000,91.000000) scale(0.100000,-0.100000)"
fill="#000000" stroke="none">
<path d="M571 900 c-222 -47 -399 -169 -533 -369 -42 -62 -47 -90 -20 -114 38
-34 42 -31 143 106 92 125 241 225 389 263 38 10 104 17 160 17 56 0 122 -7
160 -17 148 -38 299 -140 390 -264 l48 -66 -41 -60 c-77 -109 -218 -215 -341
-255 -239 -79 -483 -26 -678 149 -44 39 -64 51 -84 48 -34 -4 -49 -27 -40 -61
8 -35 133 -137 226 -186 131 -68 205 -86 360 -86 114 0 147 4 210 23 150 47
304 147 390 253 59 73 110 153 110 174 0 21 -51 101 -110 174 -84 104 -239
205 -385 251 -79 25 -277 36 -354 20z"/>
<path d="M627 696 c-106 -40 -171 -133 -169 -244 1 -96 44 -169 131 -220 39
-23 57 -27 121 -27 64 0 82 4 121 27 88 52 131 125 131 223 0 97 -43 171 -128
221 -55 32 -150 41 -207 20z m164 -119 c89 -59 89 -185 0 -244 -71 -48 -175
-20 -213 57 -50 98 21 210 132 210 32 0 58 -7 81 -23z"/>
</g>
</svg>
