<?xml version="1.0" standalone="no"?>
<!DOCTYPE svg PUBLIC "-//W3C//DTD SVG 20010904//EN"
 "http://www.w3.org/TR/2001/REC-SVG-20010904/DTD/svg10.dtd">
<svg version="1.0" xmlns="http://www.w3.org/2000/svg"
 width="212.000000pt" height="189.000000pt" viewBox="0 0 212.000000 189.000000"
 preserveAspectRatio="xMidYMid meet">

<g transform="translate(0.000000,189.000000) scale(0.100000,-0.100000)"
fill="#000000" stroke="none">
<path d="M122 1820 c-18 -11 -41 -34 -52 -52 -20 -32 -20 -49 -18 -748 l3
-715 648 -3 647 -2 0 670 0 670 -50 0 -50 0 0 50 0 50 50 0 50 0 0 50 0 50
-597 0 c-579 0 -599 -1 -631 -20z m1018 -130 l0 -50 -473 0 c-411 0 -475 2
-495 16 -26 18 -28 46 -6 68 14 14 72 16 495 16 l479 0 0 -50z m100 -745 l0
-595 -495 0 -495 0 0 595 0 595 495 0 495 0 0 -595z"/>
<path d="M350 1195 l0 -55 401 0 400 0 -3 53 -3 52 -397 3 -398 2 0 -55z"/>
<path d="M350 995 l0 -55 398 2 397 3 0 50 0 50 -397 3 -398 2 0 -55z"/>
<path d="M350 795 l0 -55 298 2 297 3 3 53 3 52 -300 0 -301 0 0 -55z"/>
<path d="M1500 1421 c-19 -10 -48 -37 -65 -60 l-30 -43 -3 -608 -3 -609 26
-51 c20 -40 30 -50 51 -50 14 0 35 10 46 23 11 12 68 112 127 221 59 109 111
198 116 198 5 0 38 -53 73 -118 155 -285 172 -314 198 -320 28 -7 49 7 70 47
12 23 14 126 14 626 0 373 -4 615 -11 643 -6 29 -23 58 -47 83 l-36 37 -246 0
c-220 0 -249 -2 -280 -19z m517 -113 c10 -20 13 -149 11 -583 l-3 -557 -84
159 c-109 205 -154 277 -174 281 -20 4 -46 -38 -169 -265 l-93 -172 -3 555
c-2 484 0 558 13 585 l16 29 237 -2 237 -3 12 -27z"/>
</g>
</svg>
