<?xml version="1.0" ?><svg enable-background="new 0 0 32 32" height="32px" id="svg2" version="1.1" viewBox="0 0 32 32" width="32px" xml:space="preserve" xmlns="http://www.w3.org/2000/svg" xmlns:cc="http://creativecommons.org/ns#" xmlns:dc="http://purl.org/dc/elements/1.1/" xmlns:inkscape="http://www.inkscape.org/namespaces/inkscape" xmlns:rdf="http://www.w3.org/1999/02/22-rdf-syntax-ns#" xmlns:sodipodi="http://sodipodi.sourceforge.net/DTD/sodipodi-0.dtd" xmlns:svg="http://www.w3.org/2000/svg"><g id="background"><rect fill="none" height="32" width="32"/></g><g id="image_x5F_edit"><path d="M28,8h-4l-4-4h-8.001L8,8H4c0,0-4,0-4,4v12c0,4,4,4,4,4s5.662,0,11.518,0c1.614,2.411,4.361,3.999,7.482,4   c3.875-0.002,7.167-2.454,8.436-5.888C31.995,25.076,32,24,32,24s0-8,0-12S28,8,28,8z M14.033,23.66C11.686,22.847,10,20.626,10,18   c0-3.312,2.684-6,6-6c1.914,0,3.607,0.908,4.706,2.306C16.848,15.321,14,18.822,14,23C14,23.223,14.018,23.441,14.033,23.66z    M23,29.883c-3.801-0.009-6.876-3.084-6.884-6.883c0.008-3.801,3.083-6.876,6.884-6.885c3.799,0.009,6.874,3.084,6.883,6.885   C29.874,26.799,26.799,29.874,23,29.883z"/><polygon points="19,27 22,27 19,24  "/><rect height="7.071" transform="matrix(-0.7071 -0.7071 0.7071 -0.7071 25.4142 54.5269)" width="4.243" x="21.879" y="18.464"/></g></svg>