<?xml version="1.0" standalone="no"?>
<!DOCTYPE svg PUBLIC "-//W3C//DTD SVG 20010904//EN"
 "http://www.w3.org/TR/2001/REC-SVG-20010904/DTD/svg10.dtd">
<svg version="1.0" xmlns="http://www.w3.org/2000/svg"
 width="242.000000pt" height="173.000000pt" viewBox="0 0 242.000000 173.000000"
 preserveAspectRatio="xMidYMid meet">

<g transform="translate(0.000000,173.000000) scale(0.100000,-0.100000)"
fill="#000000" stroke="none">
<path d="M962 1460 c-245 -64 -459 -209 -614 -414 -76 -101 -103 -155 -94
-190 8 -32 48 -60 74 -51 11 3 63 62 116 130 104 135 187 211 305 281 247 145
556 163 807 45 157 -74 285 -178 385 -313 l52 -69 -47 -69 c-117 -171 -324
-316 -531 -371 -114 -31 -317 -31 -428 -1 -149 41 -264 103 -407 220 -56 46
-83 62 -106 62 -38 0 -64 -27 -64 -64 0 -59 205 -224 376 -302 140 -64 206
-76 409 -77 159 -1 189 1 260 22 149 42 311 130 443 240 67 57 194 218 231
293 l22 47 -20 38 c-28 54 -110 169 -165 230 -90 100 -267 215 -428 279 -137
54 -432 71 -576 34z"/>
<path d="M1133 1209 c-96 -12 -194 -89 -242 -189 -36 -76 -37 -209 -2 -287 29
-65 103 -136 177 -170 50 -23 66 -25 148 -21 104 4 154 26 228 100 63 63 90
133 90 234 0 76 -4 93 -31 149 -67 136 -204 204 -368 184z"/>
</g>
</svg>
