<?xml version="1.0" standalone="no"?>
<!DOCTYPE svg PUBLIC "-//W3C//DTD SVG 20010904//EN"
 "http://www.w3.org/TR/2001/REC-SVG-20010904/DTD/svg10.dtd">
<svg version="1.0" xmlns="http://www.w3.org/2000/svg"
 width="171.000000pt" height="164.000000pt" viewBox="0 0 171.000000 164.000000"
 preserveAspectRatio="xMidYMid meet">

<g transform="translate(0.000000,164.000000) scale(0.100000,-0.100000)"
fill="#000000" stroke="none">
<path d="M242 1610 c-28 -12 -42 -47 -42 -106 0 -24 -4 -44 -10 -44 -6 0 -10
-37 -10 -90 0 -53 4 -90 10 -90 6 0 10 -123 10 -350 l0 -351 25 -24 24 -25
351 0 c337 0 351 1 370 20 19 19 20 33 20 450 0 374 -2 430 -15 430 -13 0 -15
-57 -17 -432 l-3 -433 -349 -3 c-249 -2 -353 1 -362 9 -11 9 -14 77 -14 360
l0 349 215 0 215 0 0 90 0 90 -215 0 -215 0 0 53 c0 29 5 58 12 65 9 9 90 12
301 12 226 0 288 3 285 13 -6 15 -549 21 -586 7z m83 -190 c-3 -5 -17 -10 -31
-10 -15 0 -24 -6 -24 -15 0 -9 9 -15 25 -15 14 0 25 -4 25 -10 0 -5 -11 -10
-25 -10 -20 0 -25 -5 -25 -25 0 -14 -4 -25 -10 -25 -6 0 -10 27 -10 60 l0 60
41 0 c24 0 38 -4 34 -10z m45 -50 c0 -33 -4 -60 -10 -60 -6 0 -10 27 -10 60 0
33 4 60 10 60 6 0 10 -27 10 -60z m50 10 c0 -49 1 -50 30 -50 17 0 30 -4 30
-10 0 -5 -18 -10 -40 -10 l-40 0 0 60 c0 33 4 60 10 60 6 0 10 -22 10 -50z
m170 40 c0 -5 -16 -10 -36 -10 -46 0 -41 -23 7 -31 l34 -6 -35 -4 c-23 -3 -36
-10 -38 -21 -3 -15 4 -18 32 -18 20 0 36 -4 36 -10 0 -5 -20 -10 -45 -10 l-45
0 0 60 0 60 45 0 c25 0 45 -4 45 -10z"/>
<path d="M840 1533 l0 -83 70 0 c84 0 84 -1 -9 100 l-60 65 -1 -82z"/>
<path d="M1207 804 c-4 -4 -7 -72 -7 -150 l0 -143 -147 -3 -148 -3 -3 -68 c-2
-42 2 -74 9 -83 9 -11 43 -14 150 -14 l139 0 0 -145 0 -146 83 3 82 3 3 142 3
142 142 3 142 3 3 83 3 82 -145 0 -145 0 -3 148 -3 147 -75 3 c-42 1 -79 0
-83 -4z"/>
</g>
</svg>
