<?xml version="1.0" standalone="no"?>
<!DOCTYPE svg PUBLIC "-//W3C//DTD SVG 20010904//EN"
 "http://www.w3.org/TR/2001/REC-SVG-20010904/DTD/svg10.dtd">
<svg version="1.0" xmlns="http://www.w3.org/2000/svg"
 width="137.000000pt" height="105.000000pt" viewBox="0 0 137.000000 105.000000"
 preserveAspectRatio="xMidYMid meet">

<g transform="translate(0.000000,105.000000) scale(0.100000,-0.100000)"
fill="#000000" stroke="none">
<path d="M56 1031 c-56 -37 -55 -30 -55 -506 0 -476 -1 -469 55 -506 28 -18
53 -19 627 -19 656 0 640 -1 672 60 13 25 15 95 15 465 0 370 -2 440 -15 465
-32 61 -16 60 -672 60 -574 0 -599 -1 -627 -19z m1222 -379 l2 -313 -97 80
c-83 69 -99 79 -112 67 -9 -7 -56 -45 -104 -85 l-88 -73 -152 145 c-84 79
-182 172 -220 207 l-67 62 -116 -108 c-64 -60 -145 -135 -180 -167 l-64 -59 0
269 c0 197 3 272 12 281 9 9 151 12 598 10 l585 -3 3 -313z m-90 -338 l93 -76
-3 -71 -3 -72 -70 -3 -71 -3 -98 93 -98 93 69 57 c37 31 73 57 78 57 6 1 53
-33 103 -75z"/>
<path d="M825 876 c-16 -8 -43 -28 -59 -45 -24 -25 -30 -42 -34 -91 -4 -52 -1
-66 21 -99 47 -70 150 -94 218 -48 37 24 79 97 79 137 0 14 -10 46 -22 70 -38
74 -130 109 -203 76z"/>
</g>
</svg>
