<?xml version="1.0" standalone="no"?>
<!DOCTYPE svg PUBLIC "-//W3C//DTD SVG 20010904//EN"
 "http://www.w3.org/TR/2001/REC-SVG-20010904/DTD/svg10.dtd">
<svg version="1.0" xmlns="http://www.w3.org/2000/svg"
 width="137.000000pt" height="105.000000pt" viewBox="0 0 137.000000 105.000000"
 preserveAspectRatio="xMidYMid meet">

<g transform="translate(0.000000,105.000000) scale(0.100000,-0.100000)"
fill="#000000" stroke="none">
<path d="M56 1031 c-56 -37 -55 -30 -55 -506 0 -476 -1 -469 55 -506 28 -18
53 -19 627 -19 656 0 640 -1 672 60 13 25 15 95 15 465 0 370 -2 440 -15 465
-32 61 -16 60 -672 60 -574 0 -599 -1 -627 -19z m1222 -379 l2 -313 -97 80
c-83 69 -99 79 -112 67 -9 -7 -56 -45 -104 -85 l-88 -73 -152 145 c-84 79
-182 172 -220 207 l-67 62 -116 -108 c-64 -60 -145 -135 -180 -167 l-64 -59 0
269 c0 197 3 272 12 281 9 9 151 12 598 10 l585 -3 3 -313z m-546 -292 l281
-265 -454 -3 c-250 -1 -460 0 -467 3 -8 3 -12 34 -12 104 l0 100 177 165 c98
91 181 165 185 163 5 -1 135 -121 290 -267z m456 -46 l93 -76 -3 -71 -3 -72
-70 -3 -71 -3 -98 93 -98 93 69 57 c37 31 73 57 78 57 6 1 53 -33 103 -75z"/>
<path d="M825 874 c-65 -34 -95 -79 -95 -145 0 -84 73 -159 155 -159 142 0
214 170 113 267 -56 53 -117 67 -173 37z m100 -70 c18 -7 45 -55 45 -79 0 -25
-55 -75 -83 -75 -41 0 -77 36 -77 78 0 62 55 98 115 76z"/>
</g>
</svg>
