<?xml version="1.0" standalone="no"?>
<!DOCTYPE svg PUBLIC "-//W3C//DTD SVG 20010904//EN"
 "http://www.w3.org/TR/2001/REC-SVG-20010904/DTD/svg10.dtd">
<svg version="1.0" xmlns="http://www.w3.org/2000/svg"
 width="259.000000pt" height="202.000000pt" viewBox="0 0 259.000000 202.000000"
 preserveAspectRatio="xMidYMid meet">

<g transform="translate(0.000000,202.000000) scale(0.100000,-0.100000)"
fill="#000000" stroke="none">
<path d="M471 1673 c-19 -10 -44 -31 -55 -46 -21 -28 -21 -37 -21 -630 0 -674
-3 -646 72 -683 36 -18 74 -19 823 -19 861 0 850 -1 892 58 l23 32 0 600 c0
658 1 650 -59 683 -28 16 -100 17 -836 20 -753 2 -807 1 -839 -15z m1612 -235
c4 -79 7 -266 7 -416 l0 -273 -82 69 c-93 77 -167 132 -179 132 -4 0 -65 -47
-136 -105 -70 -58 -132 -105 -136 -105 -4 0 -61 51 -125 113 -302 290 -452
429 -461 425 -5 -1 -92 -80 -193 -173 -100 -94 -204 -190 -230 -214 l-48 -44
0 351 c0 305 2 353 16 366 14 14 99 16 788 16 l773 0 6 -142z m-745 -647 c161
-152 317 -297 345 -323 l52 -47 -615 2 -615 2 -3 135 -3 136 168 155 c93 86
199 183 237 217 l69 61 36 -31 c20 -17 168 -155 329 -307z m543 -13 c24 -17
82 -63 128 -101 l83 -70 -4 -88 c-2 -49 -6 -90 -9 -93 -2 -2 -44 -6 -93 -8
l-88 -5 -126 121 c-70 67 -126 123 -126 126 0 7 176 150 185 150 3 0 26 -14
50 -32z"/>
<path d="M1495 1466 c-46 -20 -94 -65 -116 -109 -31 -60 -24 -152 17 -209 34
-51 119 -98 174 -98 20 0 61 12 91 28 130 66 158 216 60 325 -62 69 -154 95
-226 63z m127 -107 c11 -6 29 -31 40 -56 20 -45 20 -46 1 -72 -32 -42 -84 -73
-113 -66 -42 10 -80 59 -80 106 0 76 84 125 152 88z"/>
</g>
</svg>
