<?xml version="1.0" standalone="no"?>
<!DOCTYPE svg PUBLIC "-//W3C//DTD SVG 20010904//EN"
 "http://www.w3.org/TR/2001/REC-SVG-20010904/DTD/svg10.dtd">
<svg version="1.0" xmlns="http://www.w3.org/2000/svg"
 width="186.000000pt" height="179.000000pt" viewBox="0 0 186.000000 179.000000"
 preserveAspectRatio="xMidYMid meet">

<g transform="translate(0.000000,179.000000) scale(0.100000,-0.100000)"
fill="#000000" stroke="none">
<path d="M280 1478 c-10 -25 -29 -216 -21 -223 8 -8 1030 -5 1034 3 2 4 1 36
-2 72 l-6 65 -272 5 -272 5 -48 48 -49 47 -177 0 c-175 0 -178 0 -187 -22z"/>
<path d="M205 1193 c-13 -13 -15 -28 -11 -72 3 -31 13 -157 21 -281 18 -271
21 -287 45 -300 12 -6 202 -10 524 -10 l506 0 14 22 c20 31 61 625 44 645 -8
10 -122 13 -569 13 -505 0 -559 -2 -574 -17z"/>
<path d="M1357 804 c-4 -4 -7 -72 -7 -150 l0 -143 -147 -3 -148 -3 0 -80 0
-80 148 -3 147 -3 0 -145 0 -145 83 3 82 3 3 142 3 142 142 3 142 3 3 83 3 82
-145 0 -145 0 -3 148 -3 147 -75 3 c-42 1 -79 0 -83 -4z"/>
</g>
</svg>
