<?xml version="1.0" ?><!DOCTYPE svg  PUBLIC '-//W3C//DTD SVG 1.1//EN'  'http://www.w3.org/Graphics/SVG/1.1/DTD/svg11.dtd'><svg enable-background="new 0 0 1024 1024" height="1024px" id="Layer_1" version="1.1" viewBox="0 0 1024 1024" width="1024px" xml:space="preserve" xmlns="http://www.w3.org/2000/svg" xmlns:xlink="http://www.w3.org/1999/xlink"><g><g><path clip-rule="evenodd" d="M377.245,550.704c3.753-57.451,27.066-104.334,72.733-139.042     c78.745-59.844,191.651-45.088,252.456,32.938c5.84,7.494,9.898,9.646,19.588,5.796     c96.773-38.444,202.156,32.274,203.984,136.382c0.064,3.612,0.01,7.23,0.01,11.535c5.762,1.333,11.195,2.467,16.568,3.855     c51.58,13.344,86.785,64.244,80.742,116.671c-6.303,54.646-51.502,97.209-105.68,97.328     c-186.371,0.403-372.744,0.496-559.115-0.036c-68.61-0.194-125.268-56.523-128.945-125.861     c-3.589-67.653,46.571-128.151,114.018-137.157C354.375,551.674,365.322,551.521,377.245,550.704z" fill-rule="evenodd"/><path clip-rule="evenodd" d="M218.151,781.684c-37.958-2.209-76.745-0.243-113.692-7.549     C39.428,761.282-3.645,698.923,0.243,631.736c3.722-64.352,54.43-118.658,118.854-127.341c3.93-0.529,7.818-1.359,12.211-2.136     c-12.42-66.023,5.089-121.799,58.457-162.448c53.537-40.777,112.038-42.301,173.075-12.715     c31.786-57.94,79.275-97.113,144.34-113.167c43.302-10.683,86.169-7.993,128.05,7.631     c77.062,28.752,139.809,108.976,139.957,178.807c-16.57,2.958-33.08,6.378-49.756,8.479c-3.123,0.395-7.359-4.038-10.332-6.995     c-87.4-86.839-226.3-86.018-312.556,2.116c-27.814,28.419-46.867,61.981-56.1,100.692c-1.789,7.504-4.821,10.627-12.339,11.979     c-118.292,21.259-178.13,148.388-119.115,252.671c1.54,2.722,2.96,5.51,4.437,8.266     C219.001,778.945,218.576,780.314,218.151,781.684z" fill-rule="evenodd"/></g></g></svg>