<?xml version="1.0" standalone="no"?>
<!DOCTYPE svg PUBLIC "-//W3C//DTD SVG 20010904//EN"
 "http://www.w3.org/TR/2001/REC-SVG-20010904/DTD/svg10.dtd">
<svg version="1.0" xmlns="http://www.w3.org/2000/svg"
 width="242.000000pt" height="242.000000pt" viewBox="0 0 242.000000 242.000000"
 preserveAspectRatio="xMidYMid meet">

<g transform="translate(0.000000,242.000000) scale(0.100000,-0.100000)"
fill="#000000" stroke="none">
<path d="M1315 2189 c-228 -34 -415 -195 -470 -404 -8 -33 -15 -74 -15 -92 l0
-33 140 0 c109 0 140 3 140 13 0 38 34 118 66 155 20 24 59 55 88 70 44 23 63
27 136 27 70 0 93 -4 130 -24 83 -43 135 -110 150 -193 l7 -38 -68 0 c-38 0
-69 -3 -69 -6 0 -6 73 -76 226 -217 l52 -48 136 127 c75 70 136 131 136 135 0
5 -29 9 -64 9 l-64 0 -7 52 c-41 299 -338 513 -650 467z"/>
<path d="M765 1606 c-55 -24 -69 -50 -73 -132 l-4 -74 -154 0 -154 0 0 -60 c0
-57 1 -60 24 -60 13 0 28 -6 34 -12 6 -7 26 -216 46 -463 19 -248 38 -459 42
-469 4 -9 18 -22 31 -27 13 -5 208 -9 434 -9 l410 0 24 25 c15 14 25 36 25 52
0 61 70 884 75 893 3 6 19 10 36 10 29 0 29 0 29 60 0 41 -4 60 -12 60 -7 0
-57 -5 -110 -10 -95 -9 -180 -2 -198 16 -5 5 -4 30 2 55 9 40 8 52 -8 85 -33
67 -60 74 -279 74 -135 -1 -199 -5 -220 -14z m423 -78 c7 -7 12 -38 12 -70 l0
-58 -215 0 -215 0 0 58 c0 32 5 63 12 70 8 8 68 12 203 12 135 0 195 -4 203
-12z m-409 -585 c6 -126 15 -272 18 -325 l6 -98 -31 0 c-39 0 -38 -6 -52 290
-6 124 -13 255 -16 293 l-6 67 34 0 35 0 12 -227z m241 -98 l0 -325 -35 0 -35
0 0 325 0 325 35 0 35 0 0 -325z m244 288 c-2 -21 -8 -135 -14 -253 -6 -118
-13 -248 -16 -287 -6 -72 -7 -73 -35 -73 -29 0 -29 1 -29 58 0 31 7 167 15
302 8 135 15 255 15 268 0 18 5 22 34 22 33 0 34 -1 30 -37z"/>
</g>
</svg>
