<?xml version="1.0" standalone="no"?>
<!DOCTYPE svg PUBLIC "-//W3C//DTD SVG 20010904//EN"
 "http://www.w3.org/TR/2001/REC-SVG-20010904/DTD/svg10.dtd">
<svg version="1.0" xmlns="http://www.w3.org/2000/svg"
 width="227.000000pt" height="212.000000pt" viewBox="0 0 227.000000 212.000000"
 preserveAspectRatio="xMidYMid meet">

<g transform="translate(0.000000,212.000000) scale(0.100000,-0.100000)"
fill="#000000" stroke="none">
<path d="M855 1708 c-37 -29 -55 -76 -55 -143 l0 -55 -155 0 -155 0 0 -55 c0
-51 2 -55 24 -55 13 0 29 -6 35 -14 8 -9 25 -182 48 -468 24 -308 40 -460 49
-475 10 -17 27 -23 76 -28 86 -9 789 -2 810 8 9 5 19 16 23 25 3 9 21 214 40
456 19 243 37 451 40 464 4 15 15 25 35 29 29 5 30 8 30 60 l0 55 -132 -7
c-88 -5 -142 -3 -161 4 -27 11 -28 12 -21 69 5 45 2 66 -10 90 -29 57 -52 62
-284 62 -200 0 -211 -1 -237 -22z m436 -58 c16 -9 19 -22 19 -75 l0 -65 -215
0 -215 0 0 59 c0 91 -1 91 211 91 105 0 188 -4 200 -10z m-410 -382 c0 -13 8
-159 17 -325 l17 -303 -32 0 c-20 0 -33 5 -33 13 0 6 -7 125 -15 262 -8 138
-15 278 -15 313 l0 62 30 0 c24 0 30 -4 31 -22z m249 -303 l0 -325 -35 0 -35
0 0 325 0 325 35 0 35 0 0 -325z m247 248 c-3 -43 -12 -189 -18 -325 l-13
-248 -34 0 -35 0 6 78 c4 42 12 183 18 312 6 129 13 241 15 248 2 6 18 12 35
12 l32 0 -6 -77z"/>
</g>
</svg>
